{
	"asset":{
		"generator":"Khronos glTF Blender I/O v3.6.27",
		"version":"2.0"
	},
	"scene":0,
	"scenes":[
		{
			"name":"Scene",
			"nodes":[
				56
			]
		}
	],
	"nodes":[
		{
			"name":"eyes",
			"rotation":[
				-1.7763576864331977e-15,
				7.460719331220389e-08,
				8.626783176701736e-10,
				1
			],
			"scale":[
				1,
				0.9999999403953552,
				0.9999999403953552
			],
			"translation":[
				1.8435281390338787e-06,
				9.447608947753906,
				12.27221393585205
			]
		},
		{
			"name":"eyebrows",
			"rotation":[
				-1.7763576864331977e-15,
				7.460719331220389e-08,
				8.626800385158617e-10,
				1
			],
			"scale":[
				1,
				0.9999999403953552,
				0.9999999403953552
			],
			"translation":[
				1.8378011645836523e-06,
				12.766944885253906,
				12.272214889526367
			]
		},
		{
			"children":[
				0,
				1
			],
			"name":"head",
			"rotation":[
				0.4585706889629364,
				0.5382499098777771,
				-0.4585707187652588,
				0.5382499098777771
			],
			"scale":[
				1,
				1.0000001192092896,
				0.9999999403953552
			],
			"translation":[
				12.164576530456543,
				7.88271427154541e-05,
				-8.967288636085868e-07
			]
		},
		{
			"children":[
				2
			],
			"name":"neck_01",
			"rotation":[
				-3.776875701078097e-09,
				1.6769330812849148e-08,
				-0.04173322021961212,
				0.9991288185119629
			],
			"scale":[
				1,
				1.0000001192092896,
				1
			],
			"translation":[
				11.188966751098633,
				-2.8133392333984375e-05,
				-1.2004019254163723e-06
			]
		},
		{
			"name":"thumb_03_l",
			"rotation":[
				-0.03640333563089371,
				0.1520346850156784,
				0.22999416291713715,
				0.9605534672737122
			],
			"scale":[
				1,
				1.0000001192092896,
				0.9999998807907104
			],
			"translation":[
				5.665491580963135,
				-3.552436828613281e-05,
				-1.1500113032525405e-05
			]
		},
		{
			"children":[
				4
			],
			"name":"thumb_02_l",
			"rotation":[
				-0.03994183987379074,
				0.11784038692712784,
				-0.14163517951965332,
				0.9820681214332581
			],
			"scale":[
				1,
				0.9999999403953552,
				1
			],
			"translation":[
				6.370279312133789,
				2.065300941467285e-05,
				-1.886588506749831e-05
			]
		},
		{
			"children":[
				5
			],
			"name":"thumb_01_l",
			"rotation":[
				0.02548075281083584,
				-0.27684274315834045,
				-0.08803899586200714,
				0.9565343856811523
			],
			"scale":[
				1,
				1.0000001192092896,
				1
			],
			"translation":[
				3.514044761657715,
				-1.1707135438919067,
				4.50557279586792
			]
		},
		{
			"name":"indexFinger_04_l",
			"rotation":[
				-0.004519689828157425,
				0.02803986333310604,
				0.15906694531440735,
				0.9868592023849487
			],
			"scale":[
				0.9999999403953552,
				1,
				1.0000001192092896
			],
			"translation":[
				3.7797586917877197,
				3.0404888093471527e-05,
				-2.25376061280258e-06
			]
		},
		{
			"children":[
				7
			],
			"name":"indexFinger_03_l",
			"rotation":[
				-0.0069121443666517735,
				0.025717556476593018,
				-0.05700193718075752,
				0.9980188608169556
			],
			"scale":[
				1.0000001192092896,
				0.9999999403953552,
				1
			],
			"translation":[
				3.791292190551758,
				-2.224743366241455e-05,
				-2.6552206691121683e-05
			]
		},
		{
			"children":[
				8
			],
			"name":"indexFinger_02_l",
			"rotation":[
				-0.0011539628030732274,
				0.010741635225713253,
				-0.09832949191331863,
				0.9950953125953674
			],
			"scale":[
				1,
				0.9999999403953552,
				0.9999999403953552
			],
			"translation":[
				4.093573093414307,
				4.10093052778393e-05,
				2.2469421310233884e-05
			]
		},
		{
			"children":[
				9
			],
			"name":"indexFinger_01_l",
			"rotation":[
				0.00028050222317688167,
				-0.06579449027776718,
				-0.004253771156072617,
				0.9978241324424744
			],
			"scale":[
				0.9999999403953552,
				1.0000001192092896,
				1
			],
			"translation":[
				10.396552085876465,
				0.39870011806488037,
				2.672659158706665
			]
		},
		{
			"name":"finger_04_l",
			"rotation":[
				0.016646215692162514,
				-0.09652520716190338,
				0.16912944614887238,
				0.9807145595550537
			],
			"scale":[
				1.000000238418579,
				1,
				1
			],
			"translation":[
				3.003265380859375,
				5.53131103515625e-05,
				-4.394597272039391e-05
			]
		},
		{
			"children":[
				11
			],
			"name":"finger_03_l",
			"rotation":[
				-0.018149029463529587,
				0.07147876918315887,
				-0.09251079708337784,
				0.9929769039154053
			],
			"scale":[
				1,
				0.9999999403953552,
				0.9999998807907104
			],
			"translation":[
				3.5133166313171387,
				-9.73828136920929e-05,
				5.188850627746433e-05
			]
		},
		{
			"children":[
				12
			],
			"name":"finger_02_l",
			"rotation":[
				0.0026372424326837063,
				-0.019491994753479958,
				-0.021268805488944054,
				0.9995803236961365
			],
			"scale":[
				1.000000238418579,
				1.0000001192092896,
				1.0000001192092896
			],
			"translation":[
				4.24872350692749,
				6.501376628875732e-05,
				-6.674143605778227e-06
			]
		},
		{
			"children":[
				13
			],
			"name":"finger_01_l",
			"rotation":[
				-0.002486403565853834,
				0.04387973994016647,
				-0.056519199162721634,
				0.9974337220191956
			],
			"scale":[
				1,
				1.0000001192092896,
				1
			],
			"translation":[
				9.982596397399902,
				-0.1159597784280777,
				-3.28334379196167
			]
		},
		{
			"children":[
				6,
				10,
				14
			],
			"name":"Hand_L",
			"rotation":[
				6.597946633490892e-09,
				0.0358307808637619,
				2.3656307468478133e-10,
				0.9993578791618347
			],
			"scale":[
				1.0000001192092896,
				0.9999998807907104,
				1
			],
			"translation":[
				27.11452293395996,
				4.736900336865801e-06,
				-0.03812916576862335
			]
		},
		{
			"children":[
				15
			],
			"name":"lowerarm_l",
			"rotation":[
				0.0016838248120620847,
				-0.04074952378869057,
				0.041251711547374725,
				0.9983161091804504
			],
			"scale":[
				0.9999997615814209,
				0.9999998211860657,
				0.9999998807907104
			],
			"translation":[
				33.947425842285156,
				-0.14494089782238007,
				-0.14362987875938416
			]
		},
		{
			"children":[
				16
			],
			"name":"UpperArm_L",
			"rotation":[
				0.01132805086672306,
				-0.23685988783836365,
				-0.03380637988448143,
				0.9708893895149231
			],
			"scale":[
				1,
				0.9999999403953552,
				0.9999998211860657
			],
			"translation":[
				13.197860717773438,
				4.5241788029670715e-05,
				-7.887517313065473e-06
			]
		},
		{
			"children":[
				17
			],
			"name":"clavicle_l",
			"rotation":[
				0.5785470604896545,
				0.6324861645698547,
				-0.35251325368881226,
				0.37547165155410767
			],
			"translation":[
				5.801185131072998,
				-4.191439151763916,
				-7.447160243988037
			]
		},
		{
			"name":"thumb_03_r",
			"rotation":[
				-0.03640327230095863,
				0.15203435719013214,
				0.2299947440624237,
				0.9605534076690674
			],
			"scale":[
				1,
				1,
				1.0000001192092896
			],
			"translation":[
				-5.665448188781738,
				8.469820022583008e-05,
				-1.616977169760503e-05
			]
		},
		{
			"children":[
				19
			],
			"name":"thumb_02_r",
			"rotation":[
				-0.03994184732437134,
				0.11784005910158157,
				-0.14163559675216675,
				0.9820681214332581
			],
			"scale":[
				0.9999998807907104,
				1,
				0.9999999403953552
			],
			"translation":[
				-6.370212078094482,
				-0.0008075833320617676,
				6.909897638252005e-05
			]
		},
		{
			"children":[
				20
			],
			"name":"thumb_01_r",
			"rotation":[
				0.025480715557932854,
				-0.2768422067165375,
				-0.08803915977478027,
				0.9565345048904419
			],
			"scale":[
				1,
				1.0000001192092896,
				0.9999999403953552
			],
			"translation":[
				-3.513996124267578,
				1.1710199117660522,
				-4.505572319030762
			]
		},
		{
			"name":"indexFinger_04_r",
			"rotation":[
				-0.004519669804722071,
				0.028039947152137756,
				0.1590670347213745,
				0.9868592023849487
			],
			"scale":[
				0.9999998211860657,
				0.9999998807907104,
				0.9999999403953552
			],
			"translation":[
				-3.779301166534424,
				-0.0005587241612374783,
				-1.3262033462524414e-05
			]
		},
		{
			"children":[
				22
			],
			"name":"indexFinger_03_r",
			"rotation":[
				-0.006912230048328638,
				0.025718582794070244,
				-0.05700225383043289,
				0.9980188012123108
			],
			"scale":[
				1,
				0.9999998807907104,
				1
			],
			"translation":[
				-3.7913193702697754,
				0.000359855592250824,
				3.092234692303464e-05
			]
		},
		{
			"children":[
				23
			],
			"name":"indexFinger_02_r",
			"rotation":[
				-0.0011543880682438612,
				0.010743998922407627,
				-0.09832913428544998,
				0.9950952529907227
			],
			"scale":[
				1.0000001192092896,
				1.0000001192092896,
				1
			],
			"translation":[
				-4.093520164489746,
				3.866084443870932e-05,
				2.985216269735247e-07
			]
		},
		{
			"children":[
				24
			],
			"name":"indexFinger_01_r",
			"rotation":[
				0.0002804817631840706,
				-0.06579797714948654,
				-0.004253921564668417,
				0.9978238940238953
			],
			"scale":[
				1,
				1,
				0.9999999403953552
			],
			"translation":[
				-10.396587371826172,
				-0.39895835518836975,
				-2.6726582050323486
			]
		},
		{
			"name":"finger_04_r",
			"rotation":[
				0.016646282747387886,
				-0.09652497619390488,
				0.16912980377674103,
				0.9807144999504089
			],
			"scale":[
				1,
				0.9999998807907104,
				0.9999998807907104
			],
			"translation":[
				-3.0031514167785645,
				0.00010663270950317383,
				8.297269960166886e-05
			]
		},
		{
			"children":[
				26
			],
			"name":"finger_03_r",
			"rotation":[
				-0.018149085342884064,
				0.0714787095785141,
				-0.09251117706298828,
				0.9929769039154053
			],
			"scale":[
				0.9999998807907104,
				0.9999998211860657,
				1
			],
			"translation":[
				-3.5133109092712402,
				7.361173629760742e-05,
				-4.764096956932917e-05
			]
		},
		{
			"children":[
				27
			],
			"name":"finger_02_r",
			"rotation":[
				0.002637183992192149,
				-0.019491197541356087,
				-0.021268736571073532,
				0.9995803236961365
			],
			"scale":[
				0.9999998211860657,
				0.9999998211860657,
				0.9999997615814209
			],
			"translation":[
				-4.248708724975586,
				-3.9637088775634766e-05,
				1.2724271073238924e-05
			]
		},
		{
			"children":[
				28
			],
			"name":"finger_01_r",
			"rotation":[
				-0.0024864268489181995,
				0.043878767639398575,
				-0.056519318372011185,
				0.9974337220191956
			],
			"scale":[
				1,
				0.9999999403953552,
				1
			],
			"translation":[
				-9.982571601867676,
				0.11600607633590698,
				3.283344030380249
			]
		},
		{
			"children":[
				21,
				25,
				29
			],
			"name":"Hand_R",
			"rotation":[
				1.111753951974024e-14,
				0.03583082556724548,
				-1.949100315146819e-15,
				0.9993578791618347
			],
			"scale":[
				1,
				1,
				1.0000001192092896
			],
			"translation":[
				-27.11448860168457,
				-1.9140947188134305e-05,
				0.03813261538743973
			]
		},
		{
			"children":[
				30
			],
			"name":"lowerarm_r",
			"rotation":[
				0.001683732378296554,
				-0.0407518669962883,
				0.04125174880027771,
				0.9983159303665161
			],
			"translation":[
				-33.9474983215332,
				0.14477968215942383,
				0.14347516000270844
			]
		},
		{
			"children":[
				31
			],
			"name":"UpperArm_R",
			"rotation":[
				0.011328160762786865,
				-0.23685850203037262,
				-0.03380633890628815,
				0.9708897471427917
			],
			"scale":[
				1,
				1,
				0.9999999403953552
			],
			"translation":[
				-13.197853088378906,
				0.0006094593554735184,
				-1.0068963092635386e-05
			]
		},
		{
			"children":[
				32
			],
			"name":"clavicle_r",
			"rotation":[
				-0.6324865221977234,
				0.5785473585128784,
				0.37547117471694946,
				0.3525126278400421
			],
			"scale":[
				0.9999999403953552,
				0.9999998807907104,
				1
			],
			"translation":[
				5.801537036895752,
				-4.191409587860107,
				7.4471540451049805
			]
		},
		{
			"children":[
				3,
				18,
				33
			],
			"name":"spine_03",
			"rotation":[
				0.9938101768493652,
				0.1110917404294014,
				-3.158893946419994e-08,
				8.387153194178154e-09
			],
			"scale":[
				1.0000046491622925,
				1.0000001192092896,
				1
			],
			"translation":[
				17.90386390686035,
				3.7670135498046875e-05,
				7.826195087545784e-07
			]
		},
		{
			"children":[
				34
			],
			"name":"spine_02",
			"rotation":[
				-0.9951860904693604,
				-0.09800339490175247,
				3.1632399810632705e-08,
				7.399078238989887e-09
			],
			"scale":[
				0.9999980926513672,
				0.9999997615814209,
				0.9999998807907104
			],
			"translation":[
				18.151212692260742,
				-4.738569259643555e-05,
				-1.9473245629342273e-06
			]
		},
		{
			"children":[
				35
			],
			"name":"spine_01",
			"rotation":[
				0.9950196743011475,
				0.09967885166406631,
				-3.162817918678229e-08,
				7.52559703443012e-09
			],
			"scale":[
				0.9999932050704956,
				0.9999995827674866,
				1
			],
			"translation":[
				10.39329719543457,
				1.5020370483398438e-05,
				4.5430570594362507e-07
			]
		},
		{
			"name":"toes_r",
			"rotation":[
				-1.57009224652433e-15,
				0.7071067690849304,
				9.726378536400408e-15,
				0.7071067690849304
			],
			"scale":[
				0.9999999403953552,
				0.9999997615814209,
				0.9999999403953552
			],
			"translation":[
				7.295758247375488,
				4.57993223790254e-07,
				-1.683079062786419e-07
			]
		},
		{
			"children":[
				37
			],
			"name":"ball_r",
			"rotation":[
				2.6924299234565297e-08,
				3.27629173790811e-10,
				0.27001598477363586,
				0.9628558158874512
			],
			"scale":[
				0.9999998211860657,
				1.000000238418579,
				1
			],
			"translation":[
				11.284036636352539,
				1.6164693761311355e-06,
				-8.652214660287427e-07
			]
		},
		{
			"children":[
				38
			],
			"name":"Foot_R",
			"rotation":[
				-0.857670247554779,
				0.5072126984596252,
				0.03975283354520798,
				0.07454370707273483
			],
			"scale":[
				0.9999998807907104,
				1.0000001192092896,
				0.9999997615814209
			],
			"translation":[
				37.712371826171875,
				7.495284080505371e-06,
				-7.3602991506049875e-06
			]
		},
		{
			"children":[
				39
			],
			"name":"calf_r",
			"rotation":[
				0.6443776488304138,
				-0.024462711066007614,
				0.004737689159810543,
				0.7643014192581177
			],
			"scale":[
				0.9999998211860657,
				1,
				1
			],
			"translation":[
				39.9309196472168,
				5.475201760418713e-06,
				7.603865469718585e-06
			]
		},
		{
			"children":[
				40
			],
			"name":"Thigh_R",
			"rotation":[
				-0.041775330901145935,
				0.7058717012405396,
				-0.7041900157928467,
				0.06415940821170807
			],
			"translation":[
				-4.115758419036865,
				-2.692065715789795,
				-9.896707534790039
			]
		},
		{
			"name":"toes_l",
			"rotation":[
				-2.310761892942992e-08,
				0.7071067690849304,
				2.3107602942218364e-08,
				0.7071067690849304
			],
			"scale":[
				0.9999999403953552,
				0.9999998211860657,
				1
			],
			"translation":[
				-7.29575252532959,
				-4.311432803660864e-06,
				1.6817291452753125e-06
			]
		},
		{
			"children":[
				42
			],
			"name":"ball_l",
			"rotation":[
				-1.157559270659192e-09,
				5.3326211002513446e-08,
				0.2700158655643463,
				0.962855875492096
			],
			"scale":[
				1,
				0.9999999403953552,
				1
			],
			"translation":[
				-11.284040451049805,
				-1.1390586223569699e-05,
				9.498585313849617e-07
			]
		},
		{
			"children":[
				43
			],
			"name":"Foot_L",
			"rotation":[
				-0.8576701879501343,
				0.5072128176689148,
				0.03975267708301544,
				0.07454369217157364
			],
			"scale":[
				0.9999999403953552,
				0.9999997615814209,
				1.0000001192092896
			],
			"translation":[
				-37.712337493896484,
				1.1980533599853516e-05,
				-8.4972198237665e-05
			]
		},
		{
			"children":[
				44
			],
			"name":"calf_l",
			"rotation":[
				0.6443777084350586,
				-0.024462629109621048,
				0.00473776925355196,
				0.7643013000488281
			],
			"scale":[
				1,
				1.0000001192092896,
				1.0000001192092896
			],
			"translation":[
				-39.93094253540039,
				-4.25290381826926e-05,
				2.452169951538963e-07
			]
		},
		{
			"children":[
				45
			],
			"name":"Thigh_L",
			"rotation":[
				-0.7058717012405396,
				-0.0417754165828228,
				0.06415943056344986,
				0.7041900157928467
			],
			"scale":[
				0.9999998807907104,
				0.9999997615814209,
				0.9999997615814209
			],
			"translation":[
				-4.115774154663086,
				-2.6920711994171143,
				9.896712303161621
			]
		},
		{
			"children":[
				36,
				41,
				46
			],
			"name":"Pelvis",
			"rotation":[
				0.4611365795135498,
				0.5360532402992249,
				0.4611365795135498,
				0.5360532402992249
			],
			"translation":[
				0,
				87.62760925292969,
				-3.4148051781812683e-06
			]
		},
		{
			"name":"ik_foot_l",
			"rotation":[
				5.0242962053173926e-15,
				-0.7071067690849304,
				-2.9947139056428627e-22,
				0.7071067690849304
			],
			"scale":[
				0.9999998807907104,
				0.9999997019767761,
				0.9999998807907104
			],
			"translation":[
				11.444299697875977,
				3.687379837036133,
				5.5694098472595215
			]
		},
		{
			"name":"ik_foot_r",
			"rotation":[
				-0.7071067690849304,
				5.0890669456293836e-08,
				0.7071067690849304,
				0
			],
			"translation":[
				-11.444341659545898,
				3.687375068664551,
				5.5694122314453125
			]
		},
		{
			"children":[
				48,
				49
			],
			"name":"ik_foot_root",
			"rotation":[
				-0.7071067690849304,
				0,
				0,
				0.7071067690849304
			]
		},
		{
			"name":"ik_hand_l",
			"rotation":[
				-1,
				2.6469779601696886e-22,
				-7.549789415861596e-08,
				1.4853151597549186e-08
			],
			"translation":[
				159.9263916015625,
				0.00015218050975818187,
				5.535453510674415e-06
			]
		},
		{
			"name":"ik_hand_r",
			"rotation":[
				-3.580667851110775e-08,
				0,
				0,
				1
			],
			"translation":[
				-7.62939453125e-06,
				-4.0738518691796344e-07,
				5.535453055927064e-06
			]
		},
		{
			"children":[
				51,
				52
			],
			"name":"ik_hand_gun",
			"rotation":[
				0.70710688829422,
				0,
				0,
				0.7071066498756409
			],
			"translation":[
				-79.96320343017578,
				3.4173738956451416,
				136.09397888183594
			]
		},
		{
			"children":[
				53
			],
			"name":"ik_hand_root",
			"rotation":[
				-0.7071067690849304,
				0,
				0,
				0.7071067690849304
			]
		},
		{
			"mesh":0,
			"name":"SK_Chr_Alien_01",
			"skin":0
		},
		{
			"children":[
				55,
				47,
				50,
				54
			],
			"name":"Root",
			"rotation":[
				0.7071068286895752,
				0,
				0,
				0.7071068286895752
			],
			"scale":[
				0.009999999776482582,
				0.009999999776482582,
				0.009999999776482582
			]
		}
	],
	"materials":[
		{
			"doubleSided":true,
			"name":"SciFiSpaceBase",
			"pbrMetallicRoughness":{
				"baseColorFactor":[
					0.5,
					0.5,
					0.5,
					1
				],
				"metallicFactor":0,
				"roughnessFactor":0.5527864098548889
			}
		}
	],
	"meshes":[
		{
			"name":"Mesh",
			"primitives":[
				{
					"attributes":{
						"POSITION":0,
						"NORMAL":1,
						"TEXCOORD_0":2,
						"JOINTS_0":3,
						"WEIGHTS_0":4
					},
					"indices":5,
					"material":0
				}
			]
		}
	],
	"skins":[
		{
			"inverseBindMatrices":6,
			"joints":[
				47,
				36,
				35,
				34,
				3,
				2,
				0,
				1,
				18,
				17,
				16,
				15,
				6,
				5,
				4,
				10,
				9,
				8,
				7,
				14,
				13,
				12,
				11,
				33,
				32,
				31,
				30,
				21,
				20,
				19,
				25,
				24,
				23,
				22,
				29,
				28,
				27,
				26,
				41,
				40,
				39,
				38,
				37,
				46,
				45,
				44,
				43,
				42,
				50,
				48,
				49,
				54,
				53,
				51,
				52
			],
			"name":"Root"
		}
	],
	"accessors":[
		{
			"bufferView":0,
			"componentType":5126,
			"count":8766,
			"max":[
				1.0237573385238647,
				0.2544197738170624,
				1.7542482614517212
			],
			"min":[
				-1.0237573385238647,
				-0.1678052693605423,
				-0.0029797335155308247
			],
			"type":"VEC3"
		},
		{
			"bufferView":1,
			"componentType":5126,
			"count":8766,
			"type":"VEC3"
		},
		{
			"bufferView":2,
			"componentType":5126,
			"count":8766,
			"type":"VEC2"
		},
		{
			"bufferView":3,
			"componentType":5121,
			"count":8766,
			"type":"VEC4"
		},
		{
			"bufferView":4,
			"componentType":5126,
			"count":8766,
			"type":"VEC4"
		},
		{
			"bufferView":5,
			"componentType":5123,
			"count":12978,
			"type":"SCALAR"
		},
		{
			"bufferView":6,
			"componentType":5126,
			"count":55,
			"type":"MAT4"
		}
	],
	"bufferViews":[
		{
			"buffer":0,
			"byteLength":105192,
			"byteOffset":0,
			"target":34962
		},
		{
			"buffer":0,
			"byteLength":105192,
			"byteOffset":105192,
			"target":34962
		},
		{
			"buffer":0,
			"byteLength":70128,
			"byteOffset":210384,
			"target":34962
		},
		{
			"buffer":0,
			"byteLength":35064,
			"byteOffset":280512,
			"target":34962
		},
		{
			"buffer":0,
			"byteLength":140256,
			"byteOffset":315576,
			"target":34962
		},
		{
			"buffer":0,
			"byteLength":25956,
			"byteOffset":455832,
			"target":34963
		},
		{
			"buffer":0,
			"byteLength":3520,
			"byteOffset":481788
		}
	],
	"buffers":[
		{
			"byteLength":485308,
			"uri":"alien.bin"
		}
	]
}
