{
	"asset":{
		"generator":"Khronos glTF Blender I/O v4.0.44",
		"version":"2.0"
	},
	"scene":0,
	"scenes":[
		{
			"name":"Scene",
			"nodes":[
				10
			]
		}
	],
	"nodes":[
		{
			"name":"Bone.005",
			"rotation":[
				-0.11768148094415665,
				-0.037304144352674484,
				0.040902361273765564,
				0.9915071725845337
			],
			"scale":[
				0.9999998807907104,
				1,
				0.9999999403953552
			],
			"translation":[
				-1.4901161193847656e-08,
				0.7559176683425903,
				1.816079020500183e-08
			]
		},
		{
			"children":[
				0
			],
			"name":"Bone.004",
			"rotation":[
				-0.7419236898422241,
				-0.12198729813098907,
				-0.11362360417842865,
				0.6494290232658386
			],
			"scale":[
				1,
				1,
				0.9999999403953552
			],
			"translation":[
				-6.617444900424222e-24,
				0.8649869561195374,
				-1.4901161193847656e-08
			]
		},
		{
			"name":"Bone.007",
			"rotation":[
				-0.12038514763116837,
				0.008760785683989525,
				-0.037547532469034195,
				0.9919782876968384
			],
			"scale":[
				1,
				0.9999998807907104,
				0.9999999403953552
			],
			"translation":[
				-1.4901161193847656e-08,
				0.7574423551559448,
				-1.6135163605213165e-07
			]
		},
		{
			"children":[
				2
			],
			"name":"Bone.006",
			"rotation":[
				-0.7420509457588196,
				0.12175750732421875,
				0.11336290836334229,
				0.6493722796440125
			],
			"scale":[
				1,
				0.9999998807907104,
				1
			],
			"translation":[
				-6.617444900424222e-24,
				0.8649869561195374,
				-1.4901161193847656e-08
			]
		},
		{
			"children":[
				1,
				3
			],
			"name":"Bone.003",
			"rotation":[
				-0.2524339556694031,
				1.2822992390074533e-23,
				-5.605160457372037e-17,
				0.9676141738891602
			],
			"scale":[
				1,
				1,
				0.9999998807907104
			],
			"translation":[
				2.3988237764037803e-23,
				0.9037433862686157,
				-4.470348358154297e-08
			]
		},
		{
			"name":"Bone.008",
			"rotation":[
				0.4613174796104431,
				6.343567467559445e-18,
				1.415238530140246e-16,
				0.887235164642334
			],
			"scale":[
				1,
				0.9999999403953552,
				0.9999999403953552
			],
			"translation":[
				2.3988237764037803e-23,
				0.9037433862686157,
				-4.470348358154297e-08
			]
		},
		{
			"children":[
				4,
				5
			],
			"name":"Bone.002",
			"rotation":[
				0.22200769186019897,
				-1.5910125905104168e-17,
				-4.8746888389550344e-17,
				0.9750449061393738
			],
			"scale":[
				1,
				1.000000238418579,
				1.0000001192092896
			],
			"translation":[
				-3.3087224502121107e-23,
				1.1678611040115356,
				2.2351741790771484e-08
			]
		},
		{
			"children":[
				6
			],
			"name":"Bone.001",
			"rotation":[
				-0.7502208352088928,
				6.034872844659455e-17,
				6.034871521170475e-17,
				0.6611873507499695
			],
			"translation":[
				1.6543612251060553e-23,
				1,
				-1.3386783903612809e-09
			]
		},
		{
			"children":[
				7
			],
			"name":"Bone",
			"translation":[
				1.1580528575742387e-23,
				1.1974048419460814e-09,
				1.637602053961018e-09
			]
		},
		{
			"mesh":0,
			"name":"Cube.001",
			"skin":0
		},
		{
			"children":[
				9,
				8
			],
			"name":"Armature",
			"rotation":[
				0.7071068286895752,
				0,
				0,
				0.7071068286895752
			],
			"translation":[
				0,
				0.10041230171918869,
				-1.1122592687606812
			]
		}
	],
	"animations":[
		{
			"channels":[
				{
					"sampler":0,
					"target":{
						"node":8,
						"path":"translation"
					}
				},
				{
					"sampler":1,
					"target":{
						"node":8,
						"path":"rotation"
					}
				},
				{
					"sampler":2,
					"target":{
						"node":8,
						"path":"scale"
					}
				},
				{
					"sampler":3,
					"target":{
						"node":7,
						"path":"translation"
					}
				},
				{
					"sampler":4,
					"target":{
						"node":7,
						"path":"rotation"
					}
				},
				{
					"sampler":5,
					"target":{
						"node":7,
						"path":"scale"
					}
				},
				{
					"sampler":6,
					"target":{
						"node":6,
						"path":"translation"
					}
				},
				{
					"sampler":7,
					"target":{
						"node":6,
						"path":"rotation"
					}
				},
				{
					"sampler":8,
					"target":{
						"node":6,
						"path":"scale"
					}
				},
				{
					"sampler":9,
					"target":{
						"node":4,
						"path":"translation"
					}
				},
				{
					"sampler":10,
					"target":{
						"node":4,
						"path":"rotation"
					}
				},
				{
					"sampler":11,
					"target":{
						"node":4,
						"path":"scale"
					}
				},
				{
					"sampler":12,
					"target":{
						"node":1,
						"path":"translation"
					}
				},
				{
					"sampler":13,
					"target":{
						"node":1,
						"path":"rotation"
					}
				},
				{
					"sampler":14,
					"target":{
						"node":1,
						"path":"scale"
					}
				},
				{
					"sampler":15,
					"target":{
						"node":0,
						"path":"translation"
					}
				},
				{
					"sampler":16,
					"target":{
						"node":0,
						"path":"rotation"
					}
				},
				{
					"sampler":17,
					"target":{
						"node":0,
						"path":"scale"
					}
				},
				{
					"sampler":18,
					"target":{
						"node":3,
						"path":"translation"
					}
				},
				{
					"sampler":19,
					"target":{
						"node":3,
						"path":"rotation"
					}
				},
				{
					"sampler":20,
					"target":{
						"node":3,
						"path":"scale"
					}
				},
				{
					"sampler":21,
					"target":{
						"node":2,
						"path":"translation"
					}
				},
				{
					"sampler":22,
					"target":{
						"node":2,
						"path":"rotation"
					}
				},
				{
					"sampler":23,
					"target":{
						"node":2,
						"path":"scale"
					}
				},
				{
					"sampler":24,
					"target":{
						"node":5,
						"path":"translation"
					}
				},
				{
					"sampler":25,
					"target":{
						"node":5,
						"path":"rotation"
					}
				},
				{
					"sampler":26,
					"target":{
						"node":5,
						"path":"scale"
					}
				}
			],
			"name":"Idle",
			"samplers":[
				{
					"input":19,
					"interpolation":"STEP",
					"output":20
				},
				{
					"input":19,
					"interpolation":"STEP",
					"output":21
				},
				{
					"input":19,
					"interpolation":"STEP",
					"output":22
				},
				{
					"input":19,
					"interpolation":"STEP",
					"output":23
				},
				{
					"input":19,
					"interpolation":"STEP",
					"output":24
				},
				{
					"input":19,
					"interpolation":"STEP",
					"output":25
				},
				{
					"input":19,
					"interpolation":"STEP",
					"output":26
				},
				{
					"input":19,
					"interpolation":"STEP",
					"output":27
				},
				{
					"input":19,
					"interpolation":"STEP",
					"output":28
				},
				{
					"input":19,
					"interpolation":"STEP",
					"output":29
				},
				{
					"input":19,
					"interpolation":"STEP",
					"output":30
				},
				{
					"input":19,
					"interpolation":"STEP",
					"output":31
				},
				{
					"input":19,
					"interpolation":"STEP",
					"output":32
				},
				{
					"input":19,
					"interpolation":"STEP",
					"output":33
				},
				{
					"input":19,
					"interpolation":"STEP",
					"output":34
				},
				{
					"input":19,
					"interpolation":"STEP",
					"output":35
				},
				{
					"input":36,
					"interpolation":"LINEAR",
					"output":37
				},
				{
					"input":19,
					"interpolation":"STEP",
					"output":38
				},
				{
					"input":19,
					"interpolation":"STEP",
					"output":39
				},
				{
					"input":19,
					"interpolation":"STEP",
					"output":40
				},
				{
					"input":19,
					"interpolation":"STEP",
					"output":41
				},
				{
					"input":19,
					"interpolation":"STEP",
					"output":42
				},
				{
					"input":36,
					"interpolation":"LINEAR",
					"output":43
				},
				{
					"input":19,
					"interpolation":"STEP",
					"output":44
				},
				{
					"input":19,
					"interpolation":"STEP",
					"output":45
				},
				{
					"input":19,
					"interpolation":"STEP",
					"output":46
				},
				{
					"input":19,
					"interpolation":"STEP",
					"output":47
				}
			]
		}
	],
	"materials":[
		{
			"doubleSided":true,
			"name":"Material.003",
			"pbrMetallicRoughness":{
				"baseColorFactor":[
					0.01908736675977707,
					0.01908736675977707,
					0.01908736675977707,
					1
				],
				"metallicFactor":0,
				"roughnessFactor":0.739130437374115
			}
		},
		{
			"doubleSided":true,
			"name":"Material.002",
			"pbrMetallicRoughness":{
				"baseColorFactor":[
					0.00931247416883707,
					0.0047364188358187675,
					0.18382646143436432,
					1
				],
				"metallicFactor":0,
				"roughnessFactor":0
			}
		},
		{
			"doubleSided":true,
			"name":"Material.001",
			"pbrMetallicRoughness":{
				"baseColorFactor":[
					0.5313980579376221,
					0.5313980579376221,
					0.5313980579376221,
					1
				],
				"metallicFactor":0
			}
		}
	],
	"meshes":[
		{
			"name":"Cube.003",
			"primitives":[
				{
					"attributes":{
						"POSITION":0,
						"NORMAL":1,
						"TEXCOORD_0":2,
						"JOINTS_0":3,
						"WEIGHTS_0":4
					},
					"indices":5,
					"material":0
				},
				{
					"attributes":{
						"POSITION":6,
						"NORMAL":7,
						"TEXCOORD_0":8,
						"JOINTS_0":9,
						"WEIGHTS_0":10
					},
					"indices":11,
					"material":1
				},
				{
					"attributes":{
						"POSITION":12,
						"NORMAL":13,
						"TEXCOORD_0":14,
						"JOINTS_0":15,
						"WEIGHTS_0":16
					},
					"indices":17,
					"material":2
				}
			]
		}
	],
	"skins":[
		{
			"inverseBindMatrices":18,
			"joints":[
				8,
				7,
				6,
				4,
				1,
				0,
				3,
				2,
				5
			],
			"name":"Armature"
		}
	],
	"accessors":[
		{
			"bufferView":0,
			"componentType":5126,
			"count":1056,
			"max":[
				0.7400091290473938,
				2.2330965995788574,
				0.7322558760643005
			],
			"min":[
				-0.7400091290473938,
				0.039469994604587555,
				-0.8590406179428101
			],
			"type":"VEC3"
		},
		{
			"bufferView":1,
			"componentType":5126,
			"count":1056,
			"type":"VEC3"
		},
		{
			"bufferView":2,
			"componentType":5126,
			"count":1056,
			"type":"VEC2"
		},
		{
			"bufferView":3,
			"componentType":5121,
			"count":1056,
			"type":"VEC4"
		},
		{
			"bufferView":4,
			"componentType":5126,
			"count":1056,
			"type":"VEC4"
		},
		{
			"bufferView":5,
			"componentType":5123,
			"count":1626,
			"type":"SCALAR"
		},
		{
			"bufferView":6,
			"componentType":5126,
			"count":4350,
			"max":[
				0.8435333371162415,
				3.376173257827759,
				0.8435333371162415
			],
			"min":[
				-0.8435333371162415,
				2.0653915405273438,
				-1.682127594947815
			],
			"type":"VEC3"
		},
		{
			"bufferView":7,
			"componentType":5126,
			"count":4350,
			"type":"VEC3"
		},
		{
			"bufferView":8,
			"componentType":5126,
			"count":4350,
			"type":"VEC2"
		},
		{
			"bufferView":9,
			"componentType":5121,
			"count":4350,
			"type":"VEC4"
		},
		{
			"bufferView":10,
			"componentType":5126,
			"count":4350,
			"type":"VEC4"
		},
		{
			"bufferView":11,
			"componentType":5123,
			"count":6498,
			"type":"SCALAR"
		},
		{
			"bufferView":12,
			"componentType":5126,
			"count":544,
			"max":[
				0.7400091290473938,
				3.1721513271331787,
				0.7322558760643005
			],
			"min":[
				-0.7400091290473938,
				2.1366236209869385,
				-0.7818287014961243
			],
			"type":"VEC3"
		},
		{
			"bufferView":13,
			"componentType":5126,
			"count":544,
			"type":"VEC3"
		},
		{
			"bufferView":14,
			"componentType":5126,
			"count":544,
			"type":"VEC2"
		},
		{
			"bufferView":15,
			"componentType":5121,
			"count":544,
			"type":"VEC4"
		},
		{
			"bufferView":16,
			"componentType":5126,
			"count":544,
			"type":"VEC4"
		},
		{
			"bufferView":17,
			"componentType":5123,
			"count":858,
			"type":"SCALAR"
		},
		{
			"bufferView":18,
			"componentType":5126,
			"count":9,
			"type":"MAT4"
		},
		{
			"bufferView":19,
			"componentType":5126,
			"count":2,
			"max":[
				4.958333333333333
			],
			"min":[
				0.041666666666666664
			],
			"type":"SCALAR"
		},
		{
			"bufferView":20,
			"componentType":5126,
			"count":2,
			"type":"VEC3"
		},
		{
			"bufferView":21,
			"componentType":5126,
			"count":2,
			"type":"VEC4"
		},
		{
			"bufferView":22,
			"componentType":5126,
			"count":2,
			"type":"VEC3"
		},
		{
			"bufferView":23,
			"componentType":5126,
			"count":2,
			"type":"VEC3"
		},
		{
			"bufferView":24,
			"componentType":5126,
			"count":2,
			"type":"VEC4"
		},
		{
			"bufferView":25,
			"componentType":5126,
			"count":2,
			"type":"VEC3"
		},
		{
			"bufferView":26,
			"componentType":5126,
			"count":2,
			"type":"VEC3"
		},
		{
			"bufferView":27,
			"componentType":5126,
			"count":2,
			"type":"VEC4"
		},
		{
			"bufferView":28,
			"componentType":5126,
			"count":2,
			"type":"VEC3"
		},
		{
			"bufferView":29,
			"componentType":5126,
			"count":2,
			"type":"VEC3"
		},
		{
			"bufferView":30,
			"componentType":5126,
			"count":2,
			"type":"VEC4"
		},
		{
			"bufferView":31,
			"componentType":5126,
			"count":2,
			"type":"VEC3"
		},
		{
			"bufferView":32,
			"componentType":5126,
			"count":2,
			"type":"VEC3"
		},
		{
			"bufferView":33,
			"componentType":5126,
			"count":2,
			"type":"VEC4"
		},
		{
			"bufferView":34,
			"componentType":5126,
			"count":2,
			"type":"VEC3"
		},
		{
			"bufferView":35,
			"componentType":5126,
			"count":2,
			"type":"VEC3"
		},
		{
			"bufferView":36,
			"componentType":5126,
			"count":119,
			"max":[
				4.958333333333333
			],
			"min":[
				0.041666666666666664
			],
			"type":"SCALAR"
		},
		{
			"bufferView":37,
			"componentType":5126,
			"count":119,
			"type":"VEC4"
		},
		{
			"bufferView":38,
			"componentType":5126,
			"count":2,
			"type":"VEC3"
		},
		{
			"bufferView":39,
			"componentType":5126,
			"count":2,
			"type":"VEC3"
		},
		{
			"bufferView":40,
			"componentType":5126,
			"count":2,
			"type":"VEC4"
		},
		{
			"bufferView":41,
			"componentType":5126,
			"count":2,
			"type":"VEC3"
		},
		{
			"bufferView":42,
			"componentType":5126,
			"count":2,
			"type":"VEC3"
		},
		{
			"bufferView":43,
			"componentType":5126,
			"count":119,
			"type":"VEC4"
		},
		{
			"bufferView":44,
			"componentType":5126,
			"count":2,
			"type":"VEC3"
		},
		{
			"bufferView":45,
			"componentType":5126,
			"count":2,
			"type":"VEC3"
		},
		{
			"bufferView":46,
			"componentType":5126,
			"count":2,
			"type":"VEC4"
		},
		{
			"bufferView":47,
			"componentType":5126,
			"count":2,
			"type":"VEC3"
		}
	],
	"bufferViews":[
		{
			"buffer":0,
			"byteLength":12672,
			"byteOffset":0,
			"target":34962
		},
		{
			"buffer":0,
			"byteLength":12672,
			"byteOffset":12672,
			"target":34962
		},
		{
			"buffer":0,
			"byteLength":8448,
			"byteOffset":25344,
			"target":34962
		},
		{
			"buffer":0,
			"byteLength":4224,
			"byteOffset":33792,
			"target":34962
		},
		{
			"buffer":0,
			"byteLength":16896,
			"byteOffset":38016,
			"target":34962
		},
		{
			"buffer":0,
			"byteLength":3252,
			"byteOffset":54912,
			"target":34963
		},
		{
			"buffer":0,
			"byteLength":52200,
			"byteOffset":58164,
			"target":34962
		},
		{
			"buffer":0,
			"byteLength":52200,
			"byteOffset":110364,
			"target":34962
		},
		{
			"buffer":0,
			"byteLength":34800,
			"byteOffset":162564,
			"target":34962
		},
		{
			"buffer":0,
			"byteLength":17400,
			"byteOffset":197364,
			"target":34962
		},
		{
			"buffer":0,
			"byteLength":69600,
			"byteOffset":214764,
			"target":34962
		},
		{
			"buffer":0,
			"byteLength":12996,
			"byteOffset":284364,
			"target":34963
		},
		{
			"buffer":0,
			"byteLength":6528,
			"byteOffset":297360,
			"target":34962
		},
		{
			"buffer":0,
			"byteLength":6528,
			"byteOffset":303888,
			"target":34962
		},
		{
			"buffer":0,
			"byteLength":4352,
			"byteOffset":310416,
			"target":34962
		},
		{
			"buffer":0,
			"byteLength":2176,
			"byteOffset":314768,
			"target":34962
		},
		{
			"buffer":0,
			"byteLength":8704,
			"byteOffset":316944,
			"target":34962
		},
		{
			"buffer":0,
			"byteLength":1716,
			"byteOffset":325648,
			"target":34963
		},
		{
			"buffer":0,
			"byteLength":576,
			"byteOffset":327364
		},
		{
			"buffer":0,
			"byteLength":8,
			"byteOffset":327940
		},
		{
			"buffer":0,
			"byteLength":24,
			"byteOffset":327948
		},
		{
			"buffer":0,
			"byteLength":32,
			"byteOffset":327972
		},
		{
			"buffer":0,
			"byteLength":24,
			"byteOffset":328004
		},
		{
			"buffer":0,
			"byteLength":24,
			"byteOffset":328028
		},
		{
			"buffer":0,
			"byteLength":32,
			"byteOffset":328052
		},
		{
			"buffer":0,
			"byteLength":24,
			"byteOffset":328084
		},
		{
			"buffer":0,
			"byteLength":24,
			"byteOffset":328108
		},
		{
			"buffer":0,
			"byteLength":32,
			"byteOffset":328132
		},
		{
			"buffer":0,
			"byteLength":24,
			"byteOffset":328164
		},
		{
			"buffer":0,
			"byteLength":24,
			"byteOffset":328188
		},
		{
			"buffer":0,
			"byteLength":32,
			"byteOffset":328212
		},
		{
			"buffer":0,
			"byteLength":24,
			"byteOffset":328244
		},
		{
			"buffer":0,
			"byteLength":24,
			"byteOffset":328268
		},
		{
			"buffer":0,
			"byteLength":32,
			"byteOffset":328292
		},
		{
			"buffer":0,
			"byteLength":24,
			"byteOffset":328324
		},
		{
			"buffer":0,
			"byteLength":24,
			"byteOffset":328348
		},
		{
			"buffer":0,
			"byteLength":476,
			"byteOffset":328372
		},
		{
			"buffer":0,
			"byteLength":1904,
			"byteOffset":328848
		},
		{
			"buffer":0,
			"byteLength":24,
			"byteOffset":330752
		},
		{
			"buffer":0,
			"byteLength":24,
			"byteOffset":330776
		},
		{
			"buffer":0,
			"byteLength":32,
			"byteOffset":330800
		},
		{
			"buffer":0,
			"byteLength":24,
			"byteOffset":330832
		},
		{
			"buffer":0,
			"byteLength":24,
			"byteOffset":330856
		},
		{
			"buffer":0,
			"byteLength":1904,
			"byteOffset":330880
		},
		{
			"buffer":0,
			"byteLength":24,
			"byteOffset":332784
		},
		{
			"buffer":0,
			"byteLength":24,
			"byteOffset":332808
		},
		{
			"buffer":0,
			"byteLength":32,
			"byteOffset":332832
		},
		{
			"buffer":0,
			"byteLength":24,
			"byteOffset":332864
		}
	],
	"buffers":[
		{
			"byteLength":332888,
			"uri":"ninja.bin"
		}
	]
}
