{
	"asset":{
		"generator":"Khronos glTF Blender I/O v4.0.44",
		"version":"2.0"
	},
	"scene":0,
	"scenes":[
		{
			"name":"Scene",
			"nodes":[
				0,
				10
			]
		}
	],
	"nodes":[
		{
			"mesh":0,
			"name":"Cube.001",
			"scale":[
				1,
				1,
				1.9089595079421997
			]
		},
		{
			"name":"Bone.005",
			"rotation":[
				-0.11768148094415665,
				-0.037304144352674484,
				0.040902361273765564,
				0.9915071725845337
			],
			"scale":[
				0.9999998807907104,
				1,
				0.9999999403953552
			],
			"translation":[
				-2.9802322387695312e-08,
				0.7559176683425903,
				1.816079020500183e-08
			]
		},
		{
			"children":[
				1
			],
			"name":"Bone.004",
			"rotation":[
				-0.7419236302375793,
				-0.12198731303215027,
				-0.11362361907958984,
				0.6494290828704834
			],
			"scale":[
				1,
				0.9999999403953552,
				0.9999999403953552
			],
			"translation":[
				-1.9852334701272664e-23,
				0.8649869561195374,
				-1.4901161193847656e-08
			]
		},
		{
			"name":"Bone.007",
			"rotation":[
				-0.12038514763116837,
				0.008760785683989525,
				-0.037547532469034195,
				0.9919782876968384
			],
			"scale":[
				1,
				0.9999998807907104,
				0.9999999403953552
			],
			"translation":[
				0,
				0.7574423551559448,
				-1.6135163605213165e-07
			]
		},
		{
			"children":[
				3
			],
			"name":"Bone.006",
			"rotation":[
				-0.7420508861541748,
				0.12175752222537994,
				0.11336291581392288,
				0.6493723392486572
			],
			"scale":[
				1,
				0.9999998807907104,
				1
			],
			"translation":[
				-1.9852334701272664e-23,
				0.8649869561195374,
				-1.4901161193847656e-08
			]
		},
		{
			"children":[
				2,
				4
			],
			"name":"Bone.003",
			"rotation":[
				-0.2524339556694031,
				1.2822992390074533e-23,
				-5.605160457372037e-17,
				0.9676141738891602
			],
			"scale":[
				1,
				1,
				0.9999998807907104
			],
			"translation":[
				7.692779696743157e-23,
				0.9037433862686157,
				-4.470348358154297e-08
			]
		},
		{
			"name":"Bone.008",
			"rotation":[
				0.4613174796104431,
				6.343567467559445e-18,
				1.415238530140246e-16,
				0.887235164642334
			],
			"scale":[
				1,
				0.9999999403953552,
				0.9999999403953552
			],
			"translation":[
				7.692779696743157e-23,
				0.9037433862686157,
				-4.470348358154297e-08
			]
		},
		{
			"children":[
				5,
				6
			],
			"name":"Bone.002",
			"rotation":[
				0.22200769186019897,
				-1.5910125905104168e-17,
				-4.8746888389550344e-17,
				0.9750449061393738
			],
			"scale":[
				1,
				1.000000238418579,
				1.0000001192092896
			],
			"translation":[
				-3.3087224502121107e-23,
				1.1678611040115356,
				2.2351741790771484e-08
			]
		},
		{
			"children":[
				7
			],
			"name":"Bone.001",
			"rotation":[
				-0.7502208352088928,
				6.034872844659455e-17,
				6.034871521170475e-17,
				0.6611873507499695
			],
			"translation":[
				1.6543612251060553e-23,
				1,
				-1.3386783903612809e-09
			]
		},
		{
			"children":[
				8
			],
			"name":"Bone",
			"rotation":[
				0.7071067690849304,
				2.789044429741216e-31,
				1.872316393470474e-24,
				0.7071067690849304
			],
			"translation":[
				1.1580528575742387e-23,
				-1.637602053961018e-09,
				1.1974048419460814e-09
			]
		},
		{
			"children":[
				9
			],
			"name":"Armature",
			"rotation":[
				0.7071068286895752,
				0,
				0,
				0.7071068286895752
			],
			"translation":[
				0,
				1.1122592687606812,
				0.10041230171918869
			]
		}
	],
	"animations":[
		{
			"channels":[
				{
					"sampler":0,
					"target":{
						"node":9,
						"path":"translation"
					}
				},
				{
					"sampler":1,
					"target":{
						"node":9,
						"path":"rotation"
					}
				},
				{
					"sampler":2,
					"target":{
						"node":9,
						"path":"scale"
					}
				},
				{
					"sampler":3,
					"target":{
						"node":8,
						"path":"translation"
					}
				},
				{
					"sampler":4,
					"target":{
						"node":8,
						"path":"rotation"
					}
				},
				{
					"sampler":5,
					"target":{
						"node":8,
						"path":"scale"
					}
				},
				{
					"sampler":6,
					"target":{
						"node":7,
						"path":"translation"
					}
				},
				{
					"sampler":7,
					"target":{
						"node":7,
						"path":"rotation"
					}
				},
				{
					"sampler":8,
					"target":{
						"node":7,
						"path":"scale"
					}
				},
				{
					"sampler":9,
					"target":{
						"node":5,
						"path":"translation"
					}
				},
				{
					"sampler":10,
					"target":{
						"node":5,
						"path":"rotation"
					}
				},
				{
					"sampler":11,
					"target":{
						"node":5,
						"path":"scale"
					}
				},
				{
					"sampler":12,
					"target":{
						"node":2,
						"path":"translation"
					}
				},
				{
					"sampler":13,
					"target":{
						"node":2,
						"path":"rotation"
					}
				},
				{
					"sampler":14,
					"target":{
						"node":2,
						"path":"scale"
					}
				},
				{
					"sampler":15,
					"target":{
						"node":1,
						"path":"translation"
					}
				},
				{
					"sampler":16,
					"target":{
						"node":1,
						"path":"rotation"
					}
				},
				{
					"sampler":17,
					"target":{
						"node":1,
						"path":"scale"
					}
				},
				{
					"sampler":18,
					"target":{
						"node":4,
						"path":"translation"
					}
				},
				{
					"sampler":19,
					"target":{
						"node":4,
						"path":"rotation"
					}
				},
				{
					"sampler":20,
					"target":{
						"node":4,
						"path":"scale"
					}
				},
				{
					"sampler":21,
					"target":{
						"node":3,
						"path":"translation"
					}
				},
				{
					"sampler":22,
					"target":{
						"node":3,
						"path":"rotation"
					}
				},
				{
					"sampler":23,
					"target":{
						"node":3,
						"path":"scale"
					}
				},
				{
					"sampler":24,
					"target":{
						"node":6,
						"path":"translation"
					}
				},
				{
					"sampler":25,
					"target":{
						"node":6,
						"path":"rotation"
					}
				},
				{
					"sampler":26,
					"target":{
						"node":6,
						"path":"scale"
					}
				}
			],
			"name":"Idle",
			"samplers":[
				{
					"input":12,
					"interpolation":"STEP",
					"output":13
				},
				{
					"input":12,
					"interpolation":"STEP",
					"output":14
				},
				{
					"input":12,
					"interpolation":"STEP",
					"output":15
				},
				{
					"input":12,
					"interpolation":"STEP",
					"output":16
				},
				{
					"input":12,
					"interpolation":"STEP",
					"output":17
				},
				{
					"input":12,
					"interpolation":"STEP",
					"output":18
				},
				{
					"input":12,
					"interpolation":"STEP",
					"output":19
				},
				{
					"input":12,
					"interpolation":"STEP",
					"output":20
				},
				{
					"input":12,
					"interpolation":"STEP",
					"output":21
				},
				{
					"input":12,
					"interpolation":"STEP",
					"output":22
				},
				{
					"input":12,
					"interpolation":"STEP",
					"output":23
				},
				{
					"input":12,
					"interpolation":"STEP",
					"output":24
				},
				{
					"input":12,
					"interpolation":"STEP",
					"output":25
				},
				{
					"input":12,
					"interpolation":"STEP",
					"output":26
				},
				{
					"input":12,
					"interpolation":"STEP",
					"output":27
				},
				{
					"input":12,
					"interpolation":"STEP",
					"output":28
				},
				{
					"input":29,
					"interpolation":"LINEAR",
					"output":30
				},
				{
					"input":12,
					"interpolation":"STEP",
					"output":31
				},
				{
					"input":12,
					"interpolation":"STEP",
					"output":32
				},
				{
					"input":12,
					"interpolation":"STEP",
					"output":33
				},
				{
					"input":12,
					"interpolation":"STEP",
					"output":34
				},
				{
					"input":12,
					"interpolation":"STEP",
					"output":35
				},
				{
					"input":29,
					"interpolation":"LINEAR",
					"output":36
				},
				{
					"input":12,
					"interpolation":"STEP",
					"output":37
				},
				{
					"input":12,
					"interpolation":"STEP",
					"output":38
				},
				{
					"input":12,
					"interpolation":"STEP",
					"output":39
				},
				{
					"input":12,
					"interpolation":"STEP",
					"output":40
				}
			]
		}
	],
	"materials":[
		{
			"doubleSided":true,
			"name":"Material.003",
			"pbrMetallicRoughness":{
				"baseColorFactor":[
					0.01908736675977707,
					0.01908736675977707,
					0.01908736675977707,
					1
				],
				"metallicFactor":0,
				"roughnessFactor":0.739130437374115
			}
		},
		{
			"doubleSided":true,
			"name":"Material.002",
			"pbrMetallicRoughness":{
				"baseColorFactor":[
					0.00931247416883707,
					0.0047364188358187675,
					0.18382646143436432,
					1
				],
				"metallicFactor":0,
				"roughnessFactor":0
			}
		},
		{
			"doubleSided":true,
			"name":"Material.001",
			"pbrMetallicRoughness":{
				"baseColorFactor":[
					0.5313980579376221,
					0.5313980579376221,
					0.5313980579376221,
					1
				],
				"metallicFactor":0
			}
		}
	],
	"meshes":[
		{
			"name":"Cube.003",
			"primitives":[
				{
					"attributes":{
						"POSITION":0,
						"NORMAL":1,
						"TEXCOORD_0":2
					},
					"indices":3,
					"material":0
				},
				{
					"attributes":{
						"POSITION":4,
						"NORMAL":5,
						"TEXCOORD_0":6
					},
					"indices":7,
					"material":1
				},
				{
					"attributes":{
						"POSITION":8,
						"NORMAL":9,
						"TEXCOORD_0":10
					},
					"indices":11,
					"material":2
				}
			]
		}
	],
	"skins":[
		{
			"inverseBindMatrices":41,
			"joints":[
				9,
				8,
				7,
				5,
				2,
				1,
				4,
				3,
				6
			],
			"name":"Armature"
		}
	],
	"accessors":[
		{
			"bufferView":0,
			"componentType":5126,
			"count":1056,
			"max":[
				0.7400091290473938,
				0.8590406179428101,
				1.1697977781295776
			],
			"min":[
				-0.7400091290473938,
				-0.7322558760643005,
				0.020676150918006897
			],
			"type":"VEC3"
		},
		{
			"bufferView":1,
			"componentType":5126,
			"count":1056,
			"type":"VEC3"
		},
		{
			"bufferView":2,
			"componentType":5126,
			"count":1056,
			"type":"VEC2"
		},
		{
			"bufferView":3,
			"componentType":5123,
			"count":1626,
			"type":"SCALAR"
		},
		{
			"bufferView":4,
			"componentType":5126,
			"count":4350,
			"max":[
				0.8435333371162415,
				1.682127594947815,
				1.768593430519104
			],
			"min":[
				-0.8435333371162415,
				-0.8435333371162415,
				1.0819462537765503
			],
			"type":"VEC3"
		},
		{
			"bufferView":5,
			"componentType":5126,
			"count":4350,
			"type":"VEC3"
		},
		{
			"bufferView":6,
			"componentType":5126,
			"count":4350,
			"type":"VEC2"
		},
		{
			"bufferView":7,
			"componentType":5123,
			"count":6498,
			"type":"SCALAR"
		},
		{
			"bufferView":8,
			"componentType":5126,
			"count":544,
			"max":[
				0.7400091290473938,
				0.7818287014961243,
				1.661717414855957
			],
			"min":[
				-0.7400091290473938,
				-0.7322558760643005,
				1.1192607879638672
			],
			"type":"VEC3"
		},
		{
			"bufferView":9,
			"componentType":5126,
			"count":544,
			"type":"VEC3"
		},
		{
			"bufferView":10,
			"componentType":5126,
			"count":544,
			"type":"VEC2"
		},
		{
			"bufferView":11,
			"componentType":5123,
			"count":858,
			"type":"SCALAR"
		},
		{
			"bufferView":12,
			"componentType":5126,
			"count":2,
			"max":[
				4.958333333333333
			],
			"min":[
				0.041666666666666664
			],
			"type":"SCALAR"
		},
		{
			"bufferView":13,
			"componentType":5126,
			"count":2,
			"type":"VEC3"
		},
		{
			"bufferView":14,
			"componentType":5126,
			"count":2,
			"type":"VEC4"
		},
		{
			"bufferView":15,
			"componentType":5126,
			"count":2,
			"type":"VEC3"
		},
		{
			"bufferView":16,
			"componentType":5126,
			"count":2,
			"type":"VEC3"
		},
		{
			"bufferView":17,
			"componentType":5126,
			"count":2,
			"type":"VEC4"
		},
		{
			"bufferView":18,
			"componentType":5126,
			"count":2,
			"type":"VEC3"
		},
		{
			"bufferView":19,
			"componentType":5126,
			"count":2,
			"type":"VEC3"
		},
		{
			"bufferView":20,
			"componentType":5126,
			"count":2,
			"type":"VEC4"
		},
		{
			"bufferView":21,
			"componentType":5126,
			"count":2,
			"type":"VEC3"
		},
		{
			"bufferView":22,
			"componentType":5126,
			"count":2,
			"type":"VEC3"
		},
		{
			"bufferView":23,
			"componentType":5126,
			"count":2,
			"type":"VEC4"
		},
		{
			"bufferView":24,
			"componentType":5126,
			"count":2,
			"type":"VEC3"
		},
		{
			"bufferView":25,
			"componentType":5126,
			"count":2,
			"type":"VEC3"
		},
		{
			"bufferView":26,
			"componentType":5126,
			"count":2,
			"type":"VEC4"
		},
		{
			"bufferView":27,
			"componentType":5126,
			"count":2,
			"type":"VEC3"
		},
		{
			"bufferView":28,
			"componentType":5126,
			"count":2,
			"type":"VEC3"
		},
		{
			"bufferView":29,
			"componentType":5126,
			"count":119,
			"max":[
				4.958333333333333
			],
			"min":[
				0.041666666666666664
			],
			"type":"SCALAR"
		},
		{
			"bufferView":30,
			"componentType":5126,
			"count":119,
			"type":"VEC4"
		},
		{
			"bufferView":31,
			"componentType":5126,
			"count":2,
			"type":"VEC3"
		},
		{
			"bufferView":32,
			"componentType":5126,
			"count":2,
			"type":"VEC3"
		},
		{
			"bufferView":33,
			"componentType":5126,
			"count":2,
			"type":"VEC4"
		},
		{
			"bufferView":34,
			"componentType":5126,
			"count":2,
			"type":"VEC3"
		},
		{
			"bufferView":35,
			"componentType":5126,
			"count":2,
			"type":"VEC3"
		},
		{
			"bufferView":36,
			"componentType":5126,
			"count":119,
			"type":"VEC4"
		},
		{
			"bufferView":37,
			"componentType":5126,
			"count":2,
			"type":"VEC3"
		},
		{
			"bufferView":38,
			"componentType":5126,
			"count":2,
			"type":"VEC3"
		},
		{
			"bufferView":39,
			"componentType":5126,
			"count":2,
			"type":"VEC4"
		},
		{
			"bufferView":40,
			"componentType":5126,
			"count":2,
			"type":"VEC3"
		},
		{
			"bufferView":41,
			"componentType":5126,
			"count":9,
			"type":"MAT4"
		}
	],
	"bufferViews":[
		{
			"buffer":0,
			"byteLength":12672,
			"byteOffset":0,
			"target":34962
		},
		{
			"buffer":0,
			"byteLength":12672,
			"byteOffset":12672,
			"target":34962
		},
		{
			"buffer":0,
			"byteLength":8448,
			"byteOffset":25344,
			"target":34962
		},
		{
			"buffer":0,
			"byteLength":3252,
			"byteOffset":33792,
			"target":34963
		},
		{
			"buffer":0,
			"byteLength":52200,
			"byteOffset":37044,
			"target":34962
		},
		{
			"buffer":0,
			"byteLength":52200,
			"byteOffset":89244,
			"target":34962
		},
		{
			"buffer":0,
			"byteLength":34800,
			"byteOffset":141444,
			"target":34962
		},
		{
			"buffer":0,
			"byteLength":12996,
			"byteOffset":176244,
			"target":34963
		},
		{
			"buffer":0,
			"byteLength":6528,
			"byteOffset":189240,
			"target":34962
		},
		{
			"buffer":0,
			"byteLength":6528,
			"byteOffset":195768,
			"target":34962
		},
		{
			"buffer":0,
			"byteLength":4352,
			"byteOffset":202296,
			"target":34962
		},
		{
			"buffer":0,
			"byteLength":1716,
			"byteOffset":206648,
			"target":34963
		},
		{
			"buffer":0,
			"byteLength":8,
			"byteOffset":208364
		},
		{
			"buffer":0,
			"byteLength":24,
			"byteOffset":208372
		},
		{
			"buffer":0,
			"byteLength":32,
			"byteOffset":208396
		},
		{
			"buffer":0,
			"byteLength":24,
			"byteOffset":208428
		},
		{
			"buffer":0,
			"byteLength":24,
			"byteOffset":208452
		},
		{
			"buffer":0,
			"byteLength":32,
			"byteOffset":208476
		},
		{
			"buffer":0,
			"byteLength":24,
			"byteOffset":208508
		},
		{
			"buffer":0,
			"byteLength":24,
			"byteOffset":208532
		},
		{
			"buffer":0,
			"byteLength":32,
			"byteOffset":208556
		},
		{
			"buffer":0,
			"byteLength":24,
			"byteOffset":208588
		},
		{
			"buffer":0,
			"byteLength":24,
			"byteOffset":208612
		},
		{
			"buffer":0,
			"byteLength":32,
			"byteOffset":208636
		},
		{
			"buffer":0,
			"byteLength":24,
			"byteOffset":208668
		},
		{
			"buffer":0,
			"byteLength":24,
			"byteOffset":208692
		},
		{
			"buffer":0,
			"byteLength":32,
			"byteOffset":208716
		},
		{
			"buffer":0,
			"byteLength":24,
			"byteOffset":208748
		},
		{
			"buffer":0,
			"byteLength":24,
			"byteOffset":208772
		},
		{
			"buffer":0,
			"byteLength":476,
			"byteOffset":208796
		},
		{
			"buffer":0,
			"byteLength":1904,
			"byteOffset":209272
		},
		{
			"buffer":0,
			"byteLength":24,
			"byteOffset":211176
		},
		{
			"buffer":0,
			"byteLength":24,
			"byteOffset":211200
		},
		{
			"buffer":0,
			"byteLength":32,
			"byteOffset":211224
		},
		{
			"buffer":0,
			"byteLength":24,
			"byteOffset":211256
		},
		{
			"buffer":0,
			"byteLength":24,
			"byteOffset":211280
		},
		{
			"buffer":0,
			"byteLength":1904,
			"byteOffset":211304
		},
		{
			"buffer":0,
			"byteLength":24,
			"byteOffset":213208
		},
		{
			"buffer":0,
			"byteLength":24,
			"byteOffset":213232
		},
		{
			"buffer":0,
			"byteLength":32,
			"byteOffset":213256
		},
		{
			"buffer":0,
			"byteLength":24,
			"byteOffset":213288
		},
		{
			"buffer":0,
			"byteLength":576,
			"byteOffset":213312
		}
	],
	"buffers":[
		{
			"byteLength":213888,
			"uri":"ninja.bin"
		}
	]
}
